<svg width="19" height="19" viewBox="0 0 19 19" fill="none" xmlns="http://www.w3.org/2000/svg">
<g clip-path="url(#clip0_608_5275)">
<path d="M10.873 1.81934C14.2407 2.58306 16.7549 5.59445 16.7549 9.19336C16.7549 13.3693 13.3695 16.7548 9.19434 16.7549C5.59532 16.7549 2.58376 14.2417 1.81934 10.875H1.82031C1.78579 10.7045 1.81958 10.527 1.91406 10.3809C2.00856 10.2349 2.15659 10.1312 2.32617 10.0928C2.49576 10.0544 2.67412 10.0838 2.82227 10.1748C2.97032 10.2658 3.07669 10.4116 3.11914 10.5801C3.36706 11.6647 3.90067 12.6633 4.66504 13.4717C5.42972 14.2804 6.39728 14.8696 7.4668 15.1777C8.53635 15.4858 9.66931 15.5016 10.7471 15.2236C11.8248 14.9456 12.8086 14.3837 13.5957 13.5967C14.3828 12.8096 14.9446 11.8258 15.2227 10.748C15.5007 9.67021 15.4849 8.5374 15.1768 7.46777C14.8686 6.39819 14.2795 5.43074 13.4707 4.66602C12.6619 3.90133 11.6632 3.36693 10.5781 3.11914C10.4059 3.07991 10.2562 2.97375 10.1621 2.82422C10.0682 2.67478 10.037 2.49439 10.0762 2.32227C10.1152 2.15022 10.221 2.00045 10.3701 1.90625C10.5195 1.81207 10.7008 1.78034 10.873 1.81934ZM9.19336 4.69629C9.3699 4.69629 9.53917 4.76684 9.66406 4.8916C9.78887 5.01641 9.85925 5.18581 9.85938 5.3623V8.91797L9.88867 8.94727L11.9629 11.0205C12.0835 11.146 12.1499 11.3142 12.1484 11.4883C12.1469 11.6628 12.0766 11.8297 11.9531 11.9531C11.8297 12.0766 11.6629 12.1469 11.4883 12.1484C11.3136 12.15 11.1452 12.0823 11.0195 11.9609H11.0186L8.72266 9.66406C8.59774 9.53918 8.52739 9.36999 8.52734 9.19336V5.3623C8.52747 5.18581 8.59785 5.01641 8.72266 4.8916C8.84755 4.76682 9.01681 4.6963 9.19336 4.69629ZM2.29199 6.56934C2.4481 6.48679 2.63103 6.46953 2.7998 6.52148C2.96854 6.57352 3.1098 6.6906 3.19238 6.84668C3.27495 7.00282 3.29224 7.18569 3.24023 7.35449C3.19429 7.50333 3.15372 7.65378 3.11914 7.80566C3.07681 7.97423 2.97026 8.11983 2.82227 8.21094C2.67412 8.30196 2.49576 8.33229 2.32617 8.29395C2.1566 8.25551 2.00856 8.1518 1.91406 8.00586C1.81957 7.85975 1.7848 7.68128 1.81934 7.51074C1.86152 7.32502 1.91114 7.14241 1.9668 6.96191C2.01882 6.79322 2.13598 6.65192 2.29199 6.56934ZM4.53027 3.4707C4.6177 3.47399 4.70369 3.49474 4.7832 3.53125C4.86274 3.56777 4.93465 3.61941 4.99414 3.68359V3.68457C5.05345 3.74853 5.09948 3.82352 5.12988 3.90527C5.16032 3.98726 5.17512 4.07472 5.17188 4.16211C5.1686 4.24947 5.14776 4.33558 5.11133 4.41504C5.07485 4.4945 5.02308 4.56652 4.95898 4.62598C4.84378 4.73184 4.73299 4.84233 4.62695 4.95605C4.50595 5.08196 4.34057 5.15613 4.16602 5.16113C3.99164 5.1661 3.8223 5.10196 3.69434 4.9834C3.56631 4.86463 3.48953 4.69983 3.48145 4.52539C3.47344 4.3512 3.53417 4.18077 3.65039 4.05078L3.64941 4.0498C3.77763 3.91107 3.91285 3.77753 4.05176 3.64844C4.11587 3.5889 4.19142 3.54316 4.27344 3.5127C4.3555 3.48223 4.4428 3.46742 4.53027 3.4707ZM7.77344 1.8125C7.85945 1.82723 7.94175 1.85882 8.01562 1.90527C8.08967 1.95192 8.15453 2.01352 8.20508 2.08496C8.25545 2.15628 8.29124 2.23711 8.31055 2.32227C8.34943 2.49438 8.31869 2.67493 8.22461 2.82422C8.13048 2.97352 7.98068 3.07902 7.80859 3.11816C7.65581 3.15288 7.5042 3.19401 7.35449 3.24023C7.27091 3.26604 7.1828 3.27475 7.0957 3.2666C7.00866 3.25844 6.92399 3.23322 6.84668 3.19238C6.76939 3.15154 6.7013 3.09562 6.64551 3.02832C6.58968 2.96098 6.54729 2.88339 6.52148 2.7998C6.49578 2.71644 6.48608 2.62885 6.49414 2.54199C6.50227 2.45511 6.52768 2.37017 6.56836 2.29297C6.60917 2.2157 6.66517 2.14662 6.73242 2.09082C6.79969 2.03505 6.87746 1.99261 6.96094 1.9668C7.14255 1.9108 7.32714 1.86083 7.5127 1.81934H7.51367C7.59887 1.80002 7.68733 1.79778 7.77344 1.8125Z" fill="#012C12" stroke="white" stroke-width="0.2"/>
</g>
<defs>
<clipPath id="clip0_608_5275">
<rect width="18.3867" height="18.3867" fill="white"/>
</clipPath>
</defs>
</svg>
